<svg width="48" height="48" viewBox="0 0 48 48" fill="none" xmlns="http://www.w3.org/2000/svg">
<path fill-rule="evenodd" clip-rule="evenodd" d="M39.0689 15.7802C39.1545 16.1058 39.2 16.4476 39.2 16.8V31.2C39.2 33.4092 37.4092 35.2 35.2 35.2H12.8C10.5909 35.2 8.80005 33.4092 8.80005 31.2V16.8C8.80005 14.5909 10.5909 12.8 12.8 12.8H35.2C36.4539 12.8 37.5731 13.377 38.3065 14.2798C38.659 14.7139 38.9225 15.2233 39.0689 15.7802ZM12.8 14.4H35.2C36.0125 14.4 36.7306 14.8037 37.1648 15.4214L26.8285 25.7578C25.2664 27.3199 22.7338 27.3199 21.1717 25.7578L10.8353 15.4214C11.2695 14.8037 11.9876 14.4 12.8 14.4ZM10.4 17.2489V31.2C10.4 32.5255 11.4746 33.6 12.8 33.6H35.2C36.5255 33.6 37.6 32.5255 37.6 31.2V17.249L27.9599 26.8891C25.773 29.0761 22.2272 29.0761 20.0403 26.8891L10.4 17.2489Z" fill="white"/>
</svg>
